<svg width="14" height="13" viewBox="0 0 14 13" fill="none" xmlns="http://www.w3.org/2000/svg">
<path d="M11 10.5001C10.724 10.5001 10.5 10.2761 10.5 10.0001C10.5 9.72408 10.724 9.50008 11 9.50008C12.0513 9.50008 12.5 9.05142 12.5 8.00008V2.66675C12.5 1.61541 12.0513 1.16675 11 1.16675H3C1.94867 1.16675 1.5 1.61541 1.5 2.66675V8.00008C1.5 9.05142 1.94867 9.50008 3 9.50008C3.276 9.50008 3.5 9.72408 3.5 10.0001C3.5 10.2761 3.276 10.5001 3 10.5001C1.388 10.5001 0.5 9.61208 0.5 8.00008V2.66675C0.5 1.05475 1.388 0.166748 3 0.166748H11C12.612 0.166748 13.5 1.05475 13.5 2.66675V8.00008C13.5 9.61208 12.612 10.5001 11 10.5001ZM10.0413 11.8534C10.2413 11.4528 10.1987 10.9814 9.93001 10.6241L7.93197 7.96672C7.48663 7.37338 6.51263 7.37405 6.0673 7.96672L4.06934 10.6248C3.80067 10.9821 3.75801 11.4534 3.95801 11.8541C4.15734 12.2528 4.55737 12.5007 5.00203 12.5007H8.99666C9.442 12.5001 9.84268 12.2521 10.0413 11.8534ZM7.13265 8.56746L9.1307 11.2253C9.1867 11.2993 9.16465 11.3715 9.14665 11.4068C9.12931 11.4415 9.08666 11.5001 8.99666 11.5001H5.00203C4.91203 11.5001 4.86997 11.4415 4.85197 11.4068C4.83464 11.3708 4.812 11.2993 4.868 11.2253L6.86597 8.56746C6.9093 8.50946 6.96803 8.50073 6.9987 8.50073C7.02936 8.50073 7.08932 8.5088 7.13265 8.56746Z" fill="#1F1F1F"/>
</svg>
