<svg width="14" height="14" viewBox="0 0 14 14" fill="none" xmlns="http://www.w3.org/2000/svg">
<path d="M13.2554 5.40999C13.098 5.25333 12.8887 5.16667 12.6667 5.16667C12.666 5.16667 12.6654 5.16667 12.6654 5.16667H12.6647C11.346 5.16933 10.0534 5.20604 8.73405 5.62004C7.99205 5.8527 7.39333 6.33731 7 6.95597C6.60733 6.33731 6.00795 5.8527 5.26595 5.62004C3.94662 5.20604 2.65329 5.16933 1.33529 5.16667H1.33464C1.33464 5.16667 1.334 5.16667 1.33333 5.16667C1.11133 5.16667 0.902629 5.25333 0.744629 5.40999C0.587296 5.56799 0.5 5.77732 0.5 6.00065V11.334C0.5 11.7913 0.870676 12.1653 1.32601 12.1673C4.08134 12.1793 5.87066 12.5787 6.646 13.3534C6.65066 13.358 6.65663 13.3593 6.6613 13.364C6.70396 13.404 6.75194 13.4387 6.80794 13.462H6.80859C6.86926 13.4867 6.93402 13.5 6.99935 13.5C7.06468 13.5 7.12927 13.4867 7.18994 13.462H7.19059C7.24659 13.4387 7.29474 13.404 7.3374 13.364C7.34207 13.3593 7.3487 13.358 7.3527 13.3534C8.12804 12.578 9.91801 12.1793 12.6733 12.1673C13.1287 12.1653 13.4987 11.7913 13.4987 11.334V6.00065C13.5 5.77798 13.4127 5.56799 13.2554 5.40999ZM1.5 6.16732C2.68067 6.17265 3.83463 6.21931 4.96663 6.57397C5.88397 6.86197 6.5 7.696 6.5 8.64933V12.0353C5.11 11.31 3.07733 11.1826 1.5 11.168V6.16732ZM12.5 11.168C10.9227 11.182 8.89 11.31 7.5 12.0353V8.64933C7.5 7.696 8.11603 6.86197 9.03337 6.57397C10.1654 6.21864 11.32 6.17265 12.5 6.16732V11.168ZM7 4.83333C8.19467 4.83333 9.16667 3.86133 9.16667 2.66667C9.16667 1.472 8.19467 0.5 7 0.5C5.80533 0.5 4.83333 1.472 4.83333 2.66667C4.83333 3.86133 5.80533 4.83333 7 4.83333ZM7 1.5C7.64333 1.5 8.16667 2.02333 8.16667 2.66667C8.16667 3.31 7.64333 3.83333 7 3.83333C6.35667 3.83333 5.83333 3.31 5.83333 2.66667C5.83333 2.02333 6.35667 1.5 7 1.5Z" fill="#1F1F1F"/>
</svg>
