<svg width="34" height="34" viewBox="0 0 34 34" fill="none" xmlns="http://www.w3.org/2000/svg">
<path d="M27 5.75H24.9167V3.66667C24.9167 2.05833 23.6083 0.75 22 0.75H12C10.3917 0.75 9.08333 2.05833 9.08333 3.66667V5.75H7C2.97 5.75 0.75 7.97 0.75 12V12.1984V15.7551V27C0.75 31.03 2.97 33.25 7 33.25H27C31.03 33.25 33.25 31.03 33.25 27V15.7551V12.1984V12C33.25 7.97 31.03 5.75 27 5.75ZM11.5833 3.66667C11.5833 3.43667 11.77 3.25 12 3.25H22C22.23 3.25 22.4167 3.43667 22.4167 3.66667V5.75H11.5833V3.66667ZM3.25 12C3.25 9.37167 4.37167 8.25 7 8.25H27C29.6283 8.25 30.75 9.37167 30.75 12V12.1984V15.7551C30.75 16.2568 30.465 16.6949 30.0067 16.8999C28.565 17.5432 26.1083 18.4601 22.5967 19.1767C22.425 19.2117 22.24 19.0801 22.14 18.9334C20.9317 17.1284 19.0117 16.0517 17 16.0517C14.9883 16.0517 13.0683 17.1284 11.86 18.9334C11.7617 19.0817 11.5833 19.215 11.4033 19.1767C7.89333 18.4601 5.435 17.5432 3.99333 16.8999C3.535 16.6949 3.25 16.2568 3.25 15.7551V12.1984V12ZM27 30.75H7C4.37167 30.75 3.25 29.6283 3.25 27V19.3C4.83333 19.985 7.37167 20.9034 10.9017 21.625C12.0517 21.8584 13.2483 21.3501 13.9367 20.3217C14.68 19.2117 15.825 18.5501 17 18.5501C18.175 18.5501 19.32 19.2117 20.0617 20.3217C20.6383 21.1834 21.5683 21.6816 22.5333 21.6816C22.72 21.6816 22.9083 21.6634 23.095 21.625C26.6267 20.9034 29.165 19.985 30.7483 19.3V27C30.75 29.6283 29.6283 30.75 27 30.75ZM18.7 22C18.7 22.92 17.9533 23.6667 17.0333 23.6667C16.1133 23.6667 15.3583 22.92 15.3583 22C15.3583 21.08 16.095 20.3333 17.0167 20.3333H17.0333C17.9533 20.3333 18.7 21.08 18.7 22Z" fill="#F54F35"/>
</svg>
