<svg width="40" height="40" viewBox="0 0 40 40" fill="none" xmlns="http://www.w3.org/2000/svg">
<path d="M18.3333 32.0834H8.33325C5.70492 32.0834 4.58325 30.9617 4.58325 28.3334V14.5834H32.0833V18.3334C32.0833 19.0234 32.6433 19.5834 33.3333 19.5834C34.0233 19.5834 34.5833 19.0234 34.5833 18.3334V10.8334C34.5833 6.80337 32.3633 4.58337 28.3333 4.58337H26.2499V3.33337C26.2499 2.64337 25.6899 2.08337 24.9999 2.08337C24.3099 2.08337 23.7499 2.64337 23.7499 3.33337V4.58337H12.9166V3.33337C12.9166 2.64337 12.3566 2.08337 11.6666 2.08337C10.9766 2.08337 10.4166 2.64337 10.4166 3.33337V4.58337H8.33325C4.30325 4.58337 2.08325 6.80337 2.08325 10.8334V28.3334C2.08325 32.3634 4.30325 34.5834 8.33325 34.5834H18.3333C19.0233 34.5834 19.5833 34.0234 19.5833 33.3334C19.5833 32.6434 19.0233 32.0834 18.3333 32.0834ZM8.33325 7.08337H10.4166V8.33337C10.4166 9.02337 10.9766 9.58337 11.6666 9.58337C12.3566 9.58337 12.9166 9.02337 12.9166 8.33337V7.08337H23.7499V8.33337C23.7499 9.02337 24.3099 9.58337 24.9999 9.58337C25.6899 9.58337 26.2499 9.02337 26.2499 8.33337V7.08337H28.3333C30.9616 7.08337 32.0833 8.20504 32.0833 10.8334V12.0834H4.58325V10.8334C4.58325 8.20504 5.70492 7.08337 8.33325 7.08337ZM13.3666 20C13.3666 20.92 12.6216 21.6667 11.7 21.6667C10.78 21.6667 10.0247 20.92 10.0247 20C10.0247 19.08 10.7633 18.3334 11.6833 18.3334H11.7C12.62 18.3334 13.3666 19.08 13.3666 20ZM20.0333 20C20.0333 20.92 19.2883 21.6667 18.3666 21.6667C17.4466 21.6667 16.6914 20.92 16.6914 20C16.6914 19.08 17.4299 18.3334 18.3499 18.3334H18.3666C19.2866 18.3334 20.0333 19.08 20.0333 20ZM29.9999 22.0834C25.6349 22.0834 22.0833 25.635 22.0833 30C22.0833 34.365 25.6349 37.9167 29.9999 37.9167C34.3649 37.9167 37.9166 34.365 37.9166 30C37.9166 25.635 34.3649 22.0834 29.9999 22.0834ZM29.9999 35.4167C27.0133 35.4167 24.5833 32.9867 24.5833 30C24.5833 27.0134 27.0133 24.5834 29.9999 24.5834C32.9866 24.5834 35.4166 27.0134 35.4166 30C35.4166 32.9867 32.9866 35.4167 29.9999 35.4167ZM32.9666 27.7267C33.455 28.215 33.455 29.0067 32.9666 29.4951L30.1883 32.2734C29.9533 32.5084 29.6366 32.64 29.3049 32.64C28.9733 32.64 28.6549 32.5084 28.4216 32.2734L27.0332 30.8851C26.5449 30.3967 26.5449 29.605 27.0332 29.1167C27.5232 28.6267 28.3149 28.63 28.8016 29.1167L29.3066 29.6216L31.2015 27.7283C31.6882 27.2383 32.4783 27.2384 32.9666 27.7267ZM13.3666 26.6667C13.3666 27.5867 12.6216 28.3334 11.7 28.3334C10.78 28.3334 10.0247 27.5867 10.0247 26.6667C10.0247 25.7467 10.7633 25 11.6833 25H11.7C12.62 25 13.3666 25.7467 13.3666 26.6667Z" fill="#F54F35"/>
</svg>
