<svg width="14" height="12" viewBox="0 0 14 12" fill="none" xmlns="http://www.w3.org/2000/svg">
<path d="M13.5 11.3334C13.5 11.6094 13.276 11.8334 13 11.8334H2C1.06067 11.8334 0.5 11.2727 0.5 10.3334V0.666748C0.5 0.390748 0.724 0.166748 1 0.166748C1.276 0.166748 1.5 0.390748 1.5 0.666748V10.3334C1.5 10.7261 1.60733 10.8334 2 10.8334H13C13.276 10.8334 13.5 11.0574 13.5 11.3334ZM3.66667 7.83341C3.79467 7.83341 3.92267 7.78477 4.02 7.68677L6.21666 5.49007C6.282 5.42474 6.38666 5.4254 6.452 5.49007L7.52266 6.55273C7.97733 7.00473 8.71734 7.00276 9.17134 6.5481L12.0207 3.68677C12.2153 3.49143 12.2153 3.17408 12.0193 2.97941C11.8233 2.78408 11.5067 2.78538 11.312 2.98071L8.46267 5.84204C8.39733 5.90671 8.292 5.90744 8.22666 5.84277L7.15667 4.78011C6.70267 4.32944 5.96334 4.32938 5.50934 4.78271L3.31267 6.97941C3.11733 7.17474 3.11733 7.49143 3.31267 7.68677C3.41067 7.78477 3.53867 7.83341 3.66667 7.83341Z" fill="#1F1F1F"/>
</svg>
