<svg width="14" height="14" viewBox="0 0 14 14" fill="none" xmlns="http://www.w3.org/2000/svg">
<path d="M7.50074 12.9987C7.50074 13.2747 7.27674 13.4987 7.00074 13.4987C6.06741 13.4987 5.12811 13.2914 4.28411 12.8988C4.11878 12.8201 3.91211 12.8141 3.70078 12.8821L2.04143 13.4394C1.91877 13.4801 1.79402 13.5001 1.67002 13.5001C1.36535 13.5001 1.06947 13.3801 0.845471 13.1561C0.529471 12.8408 0.420803 12.3828 0.560803 11.9614L1.12135 10.2941C1.18668 10.0894 1.18076 9.88409 1.1041 9.72209C0.709431 8.87342 0.502698 7.93341 0.502698 7.00008C0.502698 3.41675 3.41806 0.500732 7.0014 0.500732C10.5854 0.500732 13.5007 3.41608 13.5007 7.00008C13.5007 7.27608 13.2767 7.50008 13.0007 7.50008C12.7247 7.50008 12.5007 7.27608 12.5007 7.00008C12.5007 3.96808 10.0341 1.50073 7.0014 1.50073C3.9694 1.50073 1.5027 3.96741 1.5027 7.00008C1.5027 7.78875 1.67804 8.58273 2.00937 9.29606C2.19337 9.68339 2.21735 10.1494 2.07268 10.6047L1.51002 12.2788C1.48202 12.3621 1.52483 12.4214 1.55283 12.4494C1.58083 12.4774 1.64072 12.5201 1.72405 12.4921L3.38942 11.9327C3.85208 11.7854 4.31939 11.8081 4.71005 11.9954C5.41872 12.3247 6.21273 12.5001 7.0014 12.5001C7.27673 12.4987 7.50074 12.7221 7.50074 12.9987ZM13.0001 10.8334H11.8334V9.66675C11.8334 9.39075 11.6094 9.16675 11.3334 9.16675C11.0574 9.16675 10.8334 9.39075 10.8334 9.66675V10.8334H9.66676C9.39076 10.8334 9.16676 11.0574 9.16676 11.3334C9.16676 11.6094 9.39076 11.8334 9.66676 11.8334H10.8334V13.0001C10.8334 13.2761 11.0574 13.5001 11.3334 13.5001C11.6094 13.5001 11.8334 13.2761 11.8334 13.0001V11.8334H13.0001C13.2761 11.8334 13.5001 11.6094 13.5001 11.3334C13.5001 11.0574 13.2761 10.8334 13.0001 10.8334ZM4.33343 5.16675C4.05743 5.16675 3.83343 5.39075 3.83343 5.66675C3.83343 5.94275 4.05743 6.16675 4.33343 6.16675H9.66676C9.94276 6.16675 10.1668 5.94275 10.1668 5.66675C10.1668 5.39075 9.94276 5.16675 9.66676 5.16675H4.33343ZM7.66676 7.83341H4.33343C4.05743 7.83341 3.83343 8.05741 3.83343 8.33341C3.83343 8.60941 4.05743 8.83341 4.33343 8.83341H7.66676C7.94276 8.83341 8.16676 8.60941 8.16676 8.33341C8.16676 8.05741 7.94276 7.83341 7.66676 7.83341Z" fill="#1F1F1F"/>
</svg>
