<svg width="16" height="13" viewBox="0 0 16 13" fill="none" xmlns="http://www.w3.org/2000/svg">
<path d="M7.33325 9.50008H3.33325C2.28192 9.50008 1.83325 9.05141 1.83325 8.00008V4.50008H12.8333V4.66675C12.8333 4.94275 13.0573 5.16675 13.3333 5.16675C13.6093 5.16675 13.8333 4.94275 13.8333 4.66675V2.66675C13.8333 1.05475 12.9453 0.166748 11.3333 0.166748H3.33325C1.72125 0.166748 0.833252 1.05475 0.833252 2.66675V8.00008C0.833252 9.61208 1.72125 10.5001 3.33325 10.5001H7.33325C7.60925 10.5001 7.83325 10.2761 7.83325 10.0001C7.83325 9.72408 7.60925 9.50008 7.33325 9.50008ZM3.33325 1.16675H11.3333C12.3846 1.16675 12.8333 1.61541 12.8333 2.66675V3.50008H1.83325V2.66675C1.83325 1.61541 2.28192 1.16675 3.33325 1.16675ZM5.99992 6.83341C6.27592 6.83341 6.49992 7.05741 6.49992 7.33341C6.49992 7.60941 6.27592 7.83341 5.99992 7.83341H3.99992C3.72392 7.83341 3.49992 7.60941 3.49992 7.33341C3.49992 7.05741 3.72392 6.83341 3.99992 6.83341H5.99992ZM11.9999 6.16675C10.2539 6.16675 8.83325 7.58741 8.83325 9.33341C8.83325 11.0794 10.2539 12.5001 11.9999 12.5001C13.7459 12.5001 15.1666 11.0794 15.1666 9.33341C15.1666 7.58741 13.7459 6.16675 11.9999 6.16675ZM11.9999 11.5001C10.8053 11.5001 9.83325 10.5281 9.83325 9.33341C9.83325 8.13875 10.8053 7.16675 11.9999 7.16675C13.1946 7.16675 14.1666 8.13875 14.1666 9.33341C14.1666 10.5281 13.1946 11.5001 11.9999 11.5001ZM13.1866 8.42407C13.3819 8.61874 13.3819 8.9361 13.1866 9.13143L12.0753 10.2428C11.9813 10.3368 11.8546 10.3894 11.7219 10.3894C11.5892 10.3894 11.4619 10.3368 11.3686 10.2428L10.8133 9.68742C10.6179 9.49208 10.6179 9.1754 10.8133 8.98006C11.0086 8.78473 11.3253 8.78473 11.5206 8.98006L11.7226 9.18209L12.4799 8.42407C12.6753 8.22874 12.9913 8.22874 13.1866 8.42407Z" fill="#1F1F1F"/>
</svg>
