<svg width="14" height="14" viewBox="0 0 14 14" fill="none" xmlns="http://www.w3.org/2000/svg">
<path d="M8.16667 7C8.16667 7.276 7.94267 7.5 7.66667 7.5H3.66667C3.39067 7.5 3.16667 7.276 3.16667 7C3.16667 6.724 3.39067 6.5 3.66667 6.5H7.66667C7.94267 6.5 8.16667 6.724 8.16667 7ZM3.66667 4.83333H5.66667C5.94267 4.83333 6.16667 4.60933 6.16667 4.33333C6.16667 4.05733 5.94267 3.83333 5.66667 3.83333H3.66667C3.39067 3.83333 3.16667 4.05733 3.16667 4.33333C3.16667 4.60933 3.39067 4.83333 3.66667 4.83333ZM7.66667 9.16667H3.66667C3.39067 9.16667 3.16667 9.39067 3.16667 9.66667C3.16667 9.94267 3.39067 10.1667 3.66667 10.1667H7.66667C7.94267 10.1667 8.16667 9.94267 8.16667 9.66667C8.16667 9.39067 7.94267 9.16667 7.66667 9.16667ZM13.5 6.66667V11.6667C13.5 12.678 12.678 13.5 11.6667 13.5H3C1.388 13.5 0.5 12.612 0.5 11V3C0.5 1.388 1.388 0.5 3 0.5H8.33333C9.94533 0.5 10.8333 1.388 10.8333 3V5.16667H12C12.8267 5.16667 13.5 5.83933 13.5 6.66667ZM10.034 12.5C9.90602 12.25 9.83333 11.9667 9.83333 11.6667V3C9.83333 1.94867 9.38467 1.5 8.33333 1.5H3C1.94867 1.5 1.5 1.94867 1.5 3V11C1.5 12.0513 1.94867 12.5 3 12.5H10.034ZM12.5 6.66667C12.5 6.39067 12.2753 6.16667 12 6.16667H10.8333V11.6667C10.8333 12.126 11.2073 12.5 11.6667 12.5C12.126 12.5 12.5 12.126 12.5 11.6667V6.66667Z" fill="#1F1F1F"/>
</svg>
