<svg width="16" height="13" viewBox="0 0 16 13" fill="none" xmlns="http://www.w3.org/2000/svg">
<path d="M8.66659 11.1667H3.33325C1.72125 11.1667 0.833252 10.2787 0.833252 8.66675V2.66675C0.833252 1.05475 1.72125 0.166748 3.33325 0.166748H11.3333C12.9453 0.166748 13.8333 1.05475 13.8333 2.66675V5.33341C13.8333 5.60941 13.6093 5.83341 13.3333 5.83341C13.0573 5.83341 12.8333 5.60941 12.8333 5.33341V2.66675C12.8333 1.61541 12.3846 1.16675 11.3333 1.16675H3.33325C2.28192 1.16675 1.83325 1.61541 1.83325 2.66675V8.66675C1.83325 9.71808 2.28192 10.1667 3.33325 10.1667H8.66659C8.94259 10.1667 9.16659 10.3907 9.16659 10.6667C9.16659 10.9427 8.94259 11.1667 8.66659 11.1667ZM8.01929 6.11941L11.2939 3.73808C11.5172 3.57608 11.5666 3.26275 11.4039 3.03942C11.2419 2.81675 10.93 2.76608 10.7053 2.92941L7.43058 5.31075C7.37192 5.35342 7.29394 5.35342 7.23527 5.31075L3.96053 2.92941C3.73586 2.76608 3.42396 2.81742 3.26196 3.03942C3.0993 3.26275 3.14866 3.57541 3.37199 3.73808L6.64657 6.12008C6.8519 6.26941 7.0926 6.34341 7.3326 6.34341C7.5726 6.34341 7.81462 6.26875 8.01929 6.11941ZM12.83 12.4728C13.9593 12.0821 15.1666 11.0721 15.1666 9.40741V8.07741C15.1666 7.84941 15.0126 7.65075 14.7919 7.59341C13.7932 7.33475 13.3286 7.11342 12.9019 6.89009C12.7566 6.81475 12.5846 6.81408 12.442 6.88874C12.0113 7.11074 11.54 7.33408 10.526 7.63142C10.3133 7.69409 10.1666 7.88942 10.1666 8.11142V9.40741C10.1666 11.0721 11.3738 12.0821 12.5032 12.4728C12.5558 12.4914 12.6113 12.5001 12.6666 12.5001C12.7219 12.5001 12.7773 12.4908 12.83 12.4728ZM12.6692 7.89341C13.0832 8.09675 13.5226 8.27474 14.1666 8.45941V9.40741C14.1666 10.6827 13.1246 11.2681 12.6666 11.4641C12.2086 11.2688 11.1666 10.6827 11.1666 9.40741V8.48209C11.8186 8.27742 12.2499 8.09875 12.6692 7.89341Z" fill="#1F1F1F"/>
</svg>
