<svg width="12" height="14" viewBox="0 0 12 14" fill="none" xmlns="http://www.w3.org/2000/svg">
<path d="M11.6866 4.64667L7.6866 0.646667C7.59261 0.552667 7.46592 0.5 7.33325 0.5H3.33325C1.72125 0.5 0.833252 1.388 0.833252 3V11C0.833252 12.612 1.72125 13.5 3.33325 13.5H9.33325C10.9453 13.5 11.8333 12.612 11.8333 11V5C11.8333 4.86733 11.7806 4.74 11.6866 4.64667ZM7.83325 2.20734L10.1259 4.5H9.33325C8.28192 4.5 7.83325 4.05133 7.83325 3V2.20734ZM9.33325 12.5H3.33325C2.28192 12.5 1.83325 12.0513 1.83325 11V3C1.83325 1.94867 2.28192 1.5 3.33325 1.5H6.83325V3C6.83325 4.612 7.72125 5.5 9.33325 5.5H10.8333V11C10.8333 12.0513 10.3846 12.5 9.33325 12.5ZM4.49992 7C4.49992 7.276 4.27592 7.5 3.99992 7.5C3.72392 7.5 3.49992 7.276 3.49992 7C3.49992 6.724 3.72392 6.5 3.99992 6.5C4.27592 6.5 4.49992 6.724 4.49992 7ZM4.49992 9.66667C4.49992 9.94267 4.27592 10.1667 3.99992 10.1667C3.72392 10.1667 3.49992 9.94267 3.49992 9.66667C3.49992 9.39067 3.72392 9.16667 3.99992 9.16667C4.27592 9.16667 4.49992 9.39067 4.49992 9.66667ZM9.16659 7C9.16659 7.276 8.94259 7.5 8.66659 7.5H5.66659C5.39059 7.5 5.16659 7.276 5.16659 7C5.16659 6.724 5.39059 6.5 5.66659 6.5H8.66659C8.94259 6.5 9.16659 6.724 9.16659 7ZM9.16659 9.66667C9.16659 9.94267 8.94259 10.1667 8.66659 10.1667H5.66659C5.39059 10.1667 5.16659 9.94267 5.16659 9.66667C5.16659 9.39067 5.39059 9.16667 5.66659 9.16667H8.66659C8.94259 9.16667 9.16659 9.39067 9.16659 9.66667Z" fill="#1F1F1F"/>
</svg>
