<svg width="14" height="14" viewBox="0 0 14 14" fill="none" xmlns="http://www.w3.org/2000/svg">
<path d="M10.3686 13.4999H3.63195C2.58462 13.4999 1.68795 12.7519 1.49995 11.7219L0.529983 6.39988C0.411316 5.74588 0.655973 5.07725 1.16931 4.65525L5.62398 0.993221C6.42198 0.337221 7.57996 0.337221 8.37796 0.993221L12.8326 4.65525C13.346 5.07725 13.5906 5.74588 13.472 6.39988L12.502 11.7219C12.3127 12.7519 11.4159 13.4999 10.3686 13.4999ZM6.99995 1.50054C6.73595 1.50054 6.47325 1.58853 6.25858 1.76519L1.80399 5.42722C1.56999 5.61922 1.45863 5.92326 1.5133 6.2206L2.48327 11.5419C2.58394 12.0966 3.0673 12.4992 3.6313 12.4992H10.368C10.932 12.4992 11.4147 12.0966 11.516 11.5419L12.486 6.21986C12.54 5.92253 12.4286 5.61922 12.1953 5.42722L7.74059 1.76519C7.5266 1.58919 7.26329 1.50054 6.99995 1.50054ZM12.0086 11.6319H12.0153H12.0086ZM6.99995 7.69993C6.11795 7.69993 5.39994 6.98191 5.39994 6.09991C5.39994 5.21791 6.11795 4.49989 6.99995 4.49989C7.88195 4.49989 8.59997 5.21791 8.59997 6.09991C8.59997 6.98191 7.88195 7.69993 6.99995 7.69993ZM6.99995 5.49989C6.66929 5.49989 6.39994 5.76924 6.39994 6.09991C6.39994 6.43058 6.66929 6.69993 6.99995 6.69993C7.33062 6.69993 7.59997 6.43058 7.59997 6.09991C7.59997 5.76924 7.33062 5.49989 6.99995 5.49989ZM8.99995 10.8332C8.72395 10.8332 8.49995 10.6092 8.49995 10.3332V10.1312C8.49995 9.65124 8.1686 9.16656 7.42793 9.16656H6.57263C5.83196 9.16656 5.5006 9.65124 5.5006 10.1312V10.3332C5.5006 10.6092 5.2766 10.8332 5.0006 10.8332C4.7246 10.8332 4.5006 10.6092 4.5006 10.3332V10.1312C4.5006 9.15524 5.21196 8.16656 6.57263 8.16656H7.42793C8.7886 8.16656 9.49995 9.15458 9.49995 10.1312V10.3332C9.49995 10.6092 9.27595 10.8332 8.99995 10.8332Z" fill="#1F1F1F"/>
</svg>
