<svg width="16" height="14" viewBox="0 0 16 14" fill="none" xmlns="http://www.w3.org/2000/svg">
<path d="M14.7833 2.34334C14.45 1.90067 13.9146 1.62535 13.1912 1.52335L6.15055 0.536695C5.42789 0.434695 4.83993 0.551359 4.3986 0.884026C3.95593 1.21736 3.67995 1.75268 3.57861 2.47468L3.48055 3.16544H3.11125C1.64258 3.16544 0.833252 3.9741 0.833252 5.44343V11.2221C0.833252 12.6914 1.64258 13.5001 3.11125 13.5001H10.2232C11.4959 13.5001 12.2713 12.8907 12.4566 11.7733C13.496 11.6893 14.1579 11.0147 14.3306 9.81534L15.1299 4.09545C15.2332 3.37478 15.116 2.78534 14.7833 2.34334ZM11.502 11.2221C11.502 12.1301 11.1312 12.5001 10.2232 12.5001H3.11125C2.20391 12.5001 1.83325 12.1301 1.83325 11.2221V5.44343C1.83325 4.53543 2.20391 4.16544 3.11125 4.16544H10.2232C11.1312 4.16544 11.502 4.53543 11.502 5.44343V11.2221ZM14.1399 3.95613L13.3406 9.67537C13.2432 10.3467 12.9913 10.6847 12.502 10.7673V5.44343C12.502 3.9741 11.6926 3.16544 10.2232 3.16544H4.48991L4.56795 2.61547C4.63195 2.1648 4.77659 1.85069 4.99992 1.68269C5.22192 1.51536 5.56258 1.4621 6.01058 1.52677L13.0519 2.51342C13.5026 2.57742 13.8159 2.72207 13.9839 2.94474C14.1519 3.16674 14.2039 3.5068 14.1399 3.95613ZM8.83325 8.33341C8.83325 8.60941 8.60925 8.83341 8.33325 8.83341H7.16659V10.0001C7.16659 10.2761 6.94259 10.5001 6.66659 10.5001C6.39059 10.5001 6.16659 10.2761 6.16659 10.0001V8.83341H4.99992C4.72392 8.83341 4.49992 8.60941 4.49992 8.33341C4.49992 8.05741 4.72392 7.83341 4.99992 7.83341H6.16659V6.66674C6.16659 6.39074 6.39059 6.16674 6.66659 6.16674C6.94259 6.16674 7.16659 6.39074 7.16659 6.66674V7.83341H8.33325C8.60925 7.83341 8.83325 8.05741 8.83325 8.33341Z" fill="#1F1F1F"/>
</svg>
