<svg width="14" height="12" viewBox="0 0 14 12" fill="none" xmlns="http://www.w3.org/2000/svg">
<path d="M11 0.166748H3C1.388 0.166748 0.5 1.05475 0.5 2.66675V9.33341C0.5 10.9454 1.388 11.8334 3 11.8334H11C12.612 11.8334 13.5 10.9454 13.5 9.33341V2.66675C13.5 1.05475 12.612 0.166748 11 0.166748ZM12.5 2.66675V5.50008H5.5V1.16675H11C12.0513 1.16675 12.5 1.61541 12.5 2.66675ZM1.5 9.33341V2.66675C1.5 1.61541 1.94867 1.16675 3 1.16675H4.5V10.8334H3C1.94867 10.8334 1.5 10.3847 1.5 9.33341ZM11 10.8334H5.5V6.50008H12.5V9.33341C12.5 10.3847 12.0513 10.8334 11 10.8334Z" fill="#1F1F1F"/>
</svg>
