<svg width="12" height="14" viewBox="0 0 12 14" fill="none" xmlns="http://www.w3.org/2000/svg">
<path d="M8.66659 13.5H3.33325C1.72125 13.5 0.833252 12.612 0.833252 11V3C0.833252 1.388 1.72125 0.5 3.33325 0.5H8.66659C10.2786 0.5 11.1666 1.388 11.1666 3V11C11.1666 12.612 10.2786 13.5 8.66659 13.5ZM3.33325 1.5C2.28192 1.5 1.83325 1.94867 1.83325 3V11C1.83325 12.0513 2.28192 12.5 3.33325 12.5H8.66659C9.71792 12.5 10.1666 12.0513 10.1666 11V3C10.1666 1.94867 9.71792 1.5 8.66659 1.5H3.33325ZM7.49992 3C7.49992 2.724 7.27592 2.5 6.99992 2.5H4.99992C4.72392 2.5 4.49992 2.724 4.49992 3C4.49992 3.276 4.72392 3.5 4.99992 3.5H6.99992C7.27592 3.5 7.49992 3.276 7.49992 3ZM5.99992 10.3333C5.63192 10.3333 5.33325 10.632 5.33325 11C5.33325 11.368 5.63192 11.6667 5.99992 11.6667C6.36792 11.6667 6.66659 11.368 6.66659 11C6.66659 10.632 6.36792 10.3333 5.99992 10.3333Z" fill="#1F1F1F"/>
</svg>
