<svg width="14" height="14" viewBox="0 0 14 14" fill="none" xmlns="http://www.w3.org/2000/svg">
<path d="M12 9.16675H10C9.81667 9.16675 9.65267 9.1941 9.5 9.23543V7.33341C9.5 6.39408 8.93933 5.83341 8 5.83341H6C5.06067 5.83341 4.5 6.39408 4.5 7.33341V7.9021C4.34733 7.86077 4.18333 7.83341 4 7.83341H2C1.06067 7.83341 0.5 8.39408 0.5 9.33341V13.0001C0.5 13.2761 0.724 13.5001 1 13.5001H5H9H13C13.276 13.5001 13.5 13.2761 13.5 13.0001V10.6667C13.5 9.72741 12.9393 9.16675 12 9.16675ZM1.5 9.33341C1.5 8.94075 1.60733 8.83341 2 8.83341H4C4.39267 8.83341 4.5 8.94075 4.5 9.33341V12.5001H1.5V9.33341ZM5.5 9.33341V7.33341C5.5 6.94075 5.60733 6.83341 6 6.83341H8C8.39267 6.83341 8.5 6.94075 8.5 7.33341V10.6667V12.5001H5.5V9.33341ZM12.5 12.5001H9.5V10.6667C9.5 10.2741 9.60733 10.1667 10 10.1667H12C12.3927 10.1667 12.5 10.2741 12.5 10.6667V12.5001ZM5.334 3.60278L5.19467 4.41341C5.14667 4.69141 5.25866 4.9681 5.48666 5.13477C5.716 5.30143 6.014 5.32406 6.26467 5.19206L7 4.80745L7.736 5.19271C7.84467 5.24937 7.962 5.27742 8.07934 5.27742C8.232 5.27742 8.384 5.22942 8.51334 5.13542C8.74134 4.96942 8.854 4.69273 8.806 4.41406L8.666 3.60205L9.28067 3.00545C9.47934 2.81212 9.55 2.52873 9.46467 2.26473C9.37934 2.00073 9.15534 1.81279 8.88134 1.77279L8.02867 1.64941L7.662 0.909424C7.53666 0.65609 7.28333 0.498779 7 0.498779C6.71667 0.498779 6.46334 0.65609 6.338 0.909424L5.97133 1.64941L5.11933 1.77279C4.84467 1.81279 4.62066 2.00073 4.53533 2.26473C4.45 2.52873 4.52066 2.81212 4.71933 3.00545L5.334 3.60278ZM6.258 2.61938C6.49333 2.58605 6.69666 2.43876 6.80266 2.22542L7 1.82739L7.19734 2.22607C7.30334 2.43874 7.50667 2.58605 7.74133 2.61938L8.178 2.68278L7.864 2.98739C7.692 3.15405 7.614 3.39476 7.65533 3.62809L7.73 4.06144L7.33467 3.85474C7.23 3.7994 7.11467 3.77205 7 3.77205C6.88533 3.77205 6.77 3.7994 6.66466 3.85474L6.27 4.06144L6.344 3.63005C6.38534 3.39405 6.30733 3.15405 6.136 2.98739L5.822 2.68205L6.258 2.61938Z" fill="#1F1F1F"/>
</svg>
