<svg width="51" height="15" viewBox="0 0 51 15" fill="none" xmlns="http://www.w3.org/2000/svg">
<path d="M0.32 14V0.68C0.626667 0.666666 0.973333 0.659999 1.36 0.659999C1.74667 0.659999 2.14667 0.659999 2.56 0.659999C2.97333 0.659999 3.38 0.659999 3.78 0.659999C4.18 0.659999 4.52667 0.666666 4.82 0.68C6.39333 0.733332 7.54 1.12 8.26 1.84C8.98 2.54667 9.34 3.45333 9.34 4.56C9.34 5.53333 9.08667 6.36667 8.58 7.06C8.08667 7.74 7.39333 8.19333 6.5 8.42C6.80667 8.66 7.10667 8.98667 7.4 9.4C7.69333 9.8 8.08667 10.3933 8.58 11.18C8.83333 11.5667 9.04 11.9067 9.2 12.2C9.37333 12.4933 9.54 12.78 9.7 13.06C9.86 13.3267 10.04 13.64 10.24 14H6.88L4.62 9.8C4.36667 9.33333 4.14 9.05333 3.94 8.96C3.74 8.85333 3.46 8.8 3.1 8.8V14H0.32ZM3.1 6.58H4.34C5.03333 6.58 5.57333 6.40667 5.96 6.06C6.34667 5.71333 6.54 5.24667 6.54 4.66C6.54 3.56667 5.86 3.02 4.5 3.02H3.1V6.58Z" fill="black"/>
<path d="M18.0514 14.36L14.5114 4.6L13.6714 14H11.0914L12.3514 0.68H15.9514L19.3514 10.24L22.6514 0.68H26.2514L27.4714 14H24.8714L23.9514 4.64L20.4314 14.14L18.0514 14.36ZM32.6941 14.3C31.6407 14.3 30.7941 13.8533 30.1541 12.96C29.5274 12.0533 29.2141 10.8133 29.2141 9.24C29.2141 7.34667 29.6941 5.90667 30.6541 4.92C31.6141 3.92 32.9941 3.42 34.7941 3.42C35.8074 3.42 36.9941 3.58 38.3541 3.9V14H35.6741L35.7341 12.36H35.6541C34.9607 13.6533 33.9741 14.3 32.6941 14.3ZM33.2941 11.84C33.7341 11.84 34.1541 11.6067 34.5541 11.14C34.9541 10.6733 35.3141 10.1 35.6341 9.42V6.06C35.4207 5.99333 35.2007 5.94667 34.9741 5.92C34.7474 5.89333 34.5407 5.88 34.3541 5.88C32.7407 5.88 31.9341 6.96 31.9341 9.12C31.9341 9.96 32.0541 10.6267 32.2941 11.12C32.5341 11.6 32.8674 11.84 33.2941 11.84ZM47.1869 14.16L44.9669 10.84L42.9069 14H39.7069L43.5069 8.68L40.0669 3.7L43.1869 3.54L45.1269 6.46L46.9269 3.7H50.0069L46.6069 8.54L50.3069 14L47.1869 14.16Z" fill="#A10F0F"/>
</svg>
