<svg width="16" height="16" viewBox="0 0 16 16" fill="none" xmlns="http://www.w3.org/2000/svg">
<path d="M7.99992 3.83339C6.62192 3.83339 5.49992 4.95473 5.49992 6.33339C5.49992 7.71206 6.62192 8.83339 7.99992 8.83339C9.37792 8.83339 10.4999 7.71206 10.4999 6.33339C10.4999 4.95473 9.37792 3.83339 7.99992 3.83339ZM7.99992 7.83339C7.17325 7.83339 6.49992 7.16073 6.49992 6.33339C6.49992 5.50606 7.17325 4.83339 7.99992 4.83339C8.82659 4.83339 9.49992 5.50606 9.49992 6.33339C9.49992 7.16073 8.82659 7.83339 7.99992 7.83339ZM8.49992 5.58339V6.33339C8.49992 6.60939 8.27592 6.83339 7.99992 6.83339C7.72392 6.83339 7.49992 6.60939 7.49992 6.33339V5.58339C7.49992 5.30739 7.72392 5.08339 7.99992 5.08339C8.27592 5.08339 8.49992 5.30739 8.49992 5.58339ZM14.6666 14.1667H14.4999V9.00006C14.4999 8.17273 13.8266 7.50006 12.9999 7.50006H12.4999V4.71474L13.0573 5.08404C13.142 5.14004 13.2379 5.16738 13.3326 5.16738C13.4946 5.16738 13.6533 5.08875 13.7499 4.94342C13.9026 4.71342 13.8399 4.40273 13.6092 4.25006L8.83195 1.08535C8.32728 0.748679 7.67394 0.748028 7.16927 1.08469L2.39062 4.25006C2.15996 4.40273 2.09725 4.71275 2.24992 4.94342C2.40259 5.17342 2.71255 5.23671 2.94255 5.08404L3.49992 4.71474V7.50006H2.99992C2.17325 7.50006 1.49992 8.17273 1.49992 9.00006V14.1667H1.33325C1.05725 14.1667 0.833252 14.3907 0.833252 14.6667C0.833252 14.9427 1.05725 15.1667 1.33325 15.1667H1.99992H13.9999H14.6666C14.9426 15.1667 15.1666 14.9427 15.1666 14.6667C15.1666 14.3907 14.9426 14.1667 14.6666 14.1667ZM7.16659 14.1667V12.0001C7.16659 11.5407 7.54059 11.1667 7.99992 11.1667C8.45925 11.1667 8.83325 11.5407 8.83325 12.0001V14.1667H7.16659ZM9.83325 14.1667V12.0001C9.83325 10.9887 9.01125 10.1667 7.99992 10.1667C6.98859 10.1667 6.16659 10.9887 6.16659 12.0001V14.1667H2.49992V9.00006C2.49992 8.72406 2.72459 8.50006 2.99992 8.50006H3.99992C4.27592 8.50006 4.49992 8.27606 4.49992 8.00006V4.05198L7.72258 1.91738C7.89124 1.80538 8.10856 1.80469 8.27856 1.91803L11.4999 4.05198V8.00006C11.4999 8.27606 11.7239 8.50006 11.9999 8.50006H12.9999C13.2753 8.50006 13.4999 8.72406 13.4999 9.00006V14.1667H9.83325ZM4.83325 10.3334C4.83325 10.6094 4.60925 10.8334 4.33325 10.8334C4.05725 10.8334 3.83325 10.6094 3.83325 10.3334C3.83325 10.0574 4.05725 9.83339 4.33325 9.83339C4.60925 9.83339 4.83325 10.0574 4.83325 10.3334ZM4.83325 12.0001C4.83325 12.2761 4.60925 12.5001 4.33325 12.5001C4.05725 12.5001 3.83325 12.2761 3.83325 12.0001C3.83325 11.7241 4.05725 11.5001 4.33325 11.5001C4.60925 11.5001 4.83325 11.7241 4.83325 12.0001ZM12.1666 10.3334C12.1666 10.6094 11.9426 10.8334 11.6666 10.8334C11.3906 10.8334 11.1666 10.6094 11.1666 10.3334C11.1666 10.0574 11.3906 9.83339 11.6666 9.83339C11.9426 9.83339 12.1666 10.0574 12.1666 10.3334ZM12.1666 12.0001C12.1666 12.2761 11.9426 12.5001 11.6666 12.5001C11.3906 12.5001 11.1666 12.2761 11.1666 12.0001C11.1666 11.7241 11.3906 11.5001 11.6666 11.5001C11.9426 11.5001 12.1666 11.7241 12.1666 12.0001Z" fill="#1F1F1F"/>
</svg>
