<svg width="12" height="14" viewBox="0 0 12 14" fill="none" xmlns="http://www.w3.org/2000/svg">
<path d="M11.4981 2.66536L9.70742 1.33203C9.56475 1.22536 9.38808 1.16667 9.20941 1.16667H6.50008V1C6.50008 0.724 6.27608 0.5 6.00008 0.5C5.72408 0.5 5.50008 0.724 5.50008 1V1.16667H3.00008C2.06075 1.16667 1.50008 1.72733 1.50008 2.66667V4C1.50008 4.93933 2.06075 5.5 3.00008 5.5H5.50008V6.5H2.79075C2.61275 6.5 2.43608 6.5587 2.29342 6.66536L0.502085 7.9987C0.289419 8.15736 0.166748 8.40133 0.166748 8.66667C0.166748 8.932 0.289419 9.17597 0.502085 9.33464L2.29274 10.668C2.43541 10.7746 2.61208 10.8333 2.79075 10.8333H5.50008V12.5H4.00008C3.72408 12.5 3.50008 12.724 3.50008 13C3.50008 13.276 3.72408 13.5 4.00008 13.5H8.00008C8.27608 13.5 8.50008 13.276 8.50008 13C8.50008 12.724 8.27608 12.5 8.00008 12.5H6.50008V10.8333H9.00008C9.93941 10.8333 10.5001 10.2727 10.5001 9.33333V8C10.5001 7.06067 9.93941 6.5 9.00008 6.5H6.50008V5.5H9.20941C9.38741 5.5 9.56408 5.4413 9.70675 5.33464L11.4981 4.0013C11.7107 3.84264 11.8334 3.59867 11.8334 3.33333C11.8334 3.068 11.7107 2.82403 11.4981 2.66536ZM9.50008 8V9.33333C9.50008 9.726 9.39275 9.83333 9.00008 9.83333H2.84675L1.27942 8.66667L2.84675 7.5H9.00008C9.39275 7.5 9.50008 7.60733 9.50008 8ZM9.15341 4.5H3.00008C2.60741 4.5 2.50008 4.39267 2.50008 4V2.66667C2.50008 2.274 2.60741 2.16667 3.00008 2.16667H9.15341L10.7207 3.33333L9.15341 4.5Z" fill="#1F1F1F"/>
</svg>
