<svg width="14" height="14" viewBox="0 0 14 14" fill="none" xmlns="http://www.w3.org/2000/svg">
<path d="M7.24541 12.8333C6.86408 12.8333 6.50606 12.6506 6.28073 12.3319L4.66802 10.0473C4.64135 10.0093 4.60475 9.98861 4.55075 9.98794L1.65809 10.0313C1.65209 10.0313 1.64536 10.0313 1.64002 10.0313C1.20936 10.0313 0.822025 9.79463 0.626025 9.41063C0.426692 9.02063 0.466727 8.55995 0.728727 8.20795L2.46603 5.8826C2.49403 5.84526 2.50204 5.79595 2.4867 5.75129L1.59136 3.09663C1.44602 2.66596 1.55606 2.1986 1.87806 1.87726C2.19873 1.5566 2.66405 1.44596 3.09738 1.59129L5.75135 2.4866C5.79668 2.50127 5.8454 2.49328 5.8814 2.46528L8.20602 0.727932C8.55602 0.465266 9.01809 0.425938 9.40809 0.625271C9.79809 0.823938 10.0361 1.21929 10.0301 1.65729L9.9867 4.5513C9.98604 4.59796 10.008 4.64129 10.046 4.66795L12.3321 6.28193C12.7027 6.54326 12.8894 6.98463 12.8181 7.4333C12.7481 7.88263 12.4341 8.2466 11.9994 8.3826L9.3154 9.2226C9.2714 9.2366 9.2354 9.27195 9.2214 9.31729L8.38205 11.9986C8.24605 12.4333 7.88201 12.7473 7.43201 12.8179C7.37068 12.8286 7.30741 12.8333 7.24541 12.8333ZM4.5527 8.98794C4.92404 8.98794 5.27075 9.16727 5.48475 9.47061L7.09673 11.7553C7.15473 11.8373 7.23539 11.838 7.27739 11.8313C7.32006 11.8246 7.39736 11.7986 7.42803 11.7013L8.26738 9.01927C8.38005 8.66127 8.66005 8.38127 9.01738 8.26927L11.7014 7.42927C11.798 7.39927 11.824 7.32262 11.83 7.27928C11.8367 7.23728 11.836 7.1573 11.7547 7.09996L9.46872 5.48595C9.16072 5.26861 8.98072 4.91397 8.98605 4.5373L9.02935 1.64395C9.03068 1.57195 8.98808 1.53528 8.95342 1.51728C8.91808 1.49928 8.8634 1.48663 8.80474 1.53063L6.48003 3.26793C6.1787 3.4926 5.78668 3.55529 5.43201 3.43529L2.77739 2.53994C2.68006 2.50728 2.61535 2.55461 2.58468 2.58527C2.55335 2.61594 2.50669 2.68261 2.53936 2.77794L3.4347 5.43329C3.55403 5.78929 3.49138 6.18127 3.26738 6.48127L1.52935 8.80663C1.48601 8.86529 1.49808 8.91996 1.51608 8.95596C1.53408 8.99129 1.59739 9.03059 1.64206 9.03193L4.53537 8.98859C4.54137 8.98793 4.54737 8.98794 4.5527 8.98794ZM13.3534 13.3533C13.5487 13.158 13.5487 12.8413 13.3534 12.6459L11.3534 10.6459C11.1581 10.4506 10.8414 10.4506 10.646 10.6459C10.4507 10.8413 10.4507 11.158 10.646 11.3533L12.646 13.3533C12.7434 13.4506 12.8714 13.4999 12.9994 13.4999C13.1274 13.4999 13.2561 13.4513 13.3534 13.3533Z" fill="#1F1F1F"/>
</svg>
