<svg width="34" height="34" viewBox="0 0 34 34" fill="none" xmlns="http://www.w3.org/2000/svg">
<path d="M17.6134 31.5833C16.6601 31.5833 15.765 31.1266 15.2017 30.33L11.1699 24.6183C11.1033 24.5233 11.0117 24.4716 10.8767 24.47L3.6451 24.5783C3.6301 24.5783 3.61327 24.5783 3.59994 24.5783C2.52327 24.5783 1.55494 23.9867 1.06494 23.0267C0.566608 22.0517 0.666696 20.9 1.3217 20.02L5.66496 14.2066C5.73496 14.1133 5.75497 13.99 5.71663 13.8783L3.47827 7.24169C3.11494 6.16502 3.39003 4.99662 4.19503 4.19328C4.99669 3.39162 6.15999 3.11503 7.24333 3.47836L13.8783 5.71662C13.9916 5.75329 14.1134 5.73332 14.2034 5.66332L20.0149 1.31995C20.8899 0.663286 22.0451 0.564967 23.0201 1.0633C23.9951 1.55997 24.5901 2.54836 24.5751 3.64336L24.4666 10.8784C24.465 10.995 24.5199 11.1033 24.6149 11.17L30.3301 15.2049C31.2567 15.8583 31.7234 16.9617 31.5451 18.0834C31.3701 19.2067 30.585 20.1166 29.4984 20.4566L22.7884 22.5566C22.6784 22.5916 22.5884 22.68 22.5534 22.7933L20.455 29.4966C20.115 30.5833 19.2049 31.3683 18.0799 31.545C17.9266 31.5716 17.7684 31.5833 17.6134 31.5833ZM10.8816 21.97C11.81 21.97 12.6768 22.4183 13.2118 23.1766L17.2417 28.8883C17.3867 29.0933 17.5884 29.095 17.6934 29.0783C17.8 29.0617 17.9933 28.9967 18.0699 28.7533L20.1683 22.0483C20.45 21.1533 21.15 20.4533 22.0433 20.1733L28.7533 18.0733C28.995 17.9983 29.06 17.8067 29.075 17.6983C29.0917 17.5933 29.0899 17.3934 28.8866 17.25L23.1717 13.215C22.4017 12.6717 21.9517 11.785 21.965 10.8434L22.0732 3.60999C22.0766 3.42999 21.9701 3.33832 21.8834 3.29332C21.7951 3.24832 21.6584 3.21669 21.5117 3.32669L15.7 7.66995C14.9466 8.23162 13.9666 8.38834 13.0799 8.08834L6.44336 5.84998C6.20003 5.76832 6.03826 5.88664 5.96159 5.9633C5.88326 6.03997 5.7666 6.20664 5.84827 6.44497L8.08663 13.0834C8.38496 13.9734 8.22833 14.9533 7.66833 15.7033L3.32324 21.5167C3.21491 21.6634 3.24508 21.8 3.29008 21.89C3.33508 21.9784 3.49335 22.0766 3.60502 22.0799L10.8383 21.9716C10.8533 21.9699 10.8683 21.97 10.8816 21.97ZM32.8834 32.8834C33.3717 32.395 33.3717 31.6033 32.8834 31.115L27.8834 26.115C27.395 25.6266 26.6033 25.6266 26.115 26.115C25.6267 26.6033 25.6267 27.395 26.115 27.8834L31.115 32.8834C31.3583 33.1267 31.6784 33.25 31.9984 33.25C32.3184 33.25 32.64 33.1284 32.8834 32.8834Z" fill="#F54F35"/>
</svg>
