<svg width="16" height="15" viewBox="0 0 16 15" fill="none" xmlns="http://www.w3.org/2000/svg">
<path d="M12.4611 14.1667H3.5378C2.57913 14.1667 1.71194 13.6761 1.21928 12.8547C0.727943 12.0347 0.703847 11.0421 1.15385 10.1988L5.55782 1.96216C6.04649 1.04682 6.95991 0.500732 7.99857 0.500732C9.03724 0.500732 9.9505 1.04682 10.4392 1.96216L14.8431 10.1988C15.2938 11.0421 15.2699 12.0347 14.7779 12.8547C14.2879 13.6761 13.4205 14.1667 12.4611 14.1667ZM7.99988 1.50008C7.33588 1.50008 6.75313 1.8487 6.44047 2.4327L2.0365 10.6694C1.75316 11.1994 1.7685 11.8241 2.07784 12.3394C2.3885 12.8568 2.93395 13.1661 3.53861 13.1661H12.462C13.0666 13.1661 13.6126 12.8574 13.9226 12.3394C14.2319 11.8241 14.2466 11.1994 13.9639 10.6694L9.55993 2.4327C9.2466 1.8487 8.66388 1.50008 7.99988 1.50008Z" fill="#1F1F1F"/>
</svg>
