<svg width="14" height="16" viewBox="0 0 14 16" fill="none" xmlns="http://www.w3.org/2000/svg">
<path d="M1.00068 7.90324C0.982682 7.90324 0.963995 7.90255 0.945995 7.90055C0.671328 7.87055 0.472701 7.62328 0.503368 7.34928C0.744701 5.13728 2.07935 3.23322 4.07335 2.25456C4.22869 2.17856 4.41139 2.18788 4.55805 2.27922C4.70472 2.37055 4.79406 2.53127 4.79406 2.70394V4.73722C4.79406 5.01322 4.57006 5.23722 4.29406 5.23722C4.01806 5.23722 3.79406 5.01322 3.79406 4.73722V3.57658C2.51139 4.46858 1.67068 5.86991 1.49735 7.45858C1.46868 7.71391 1.25268 7.90324 1.00068 7.90324ZM9.92671 13.8193C11.9207 12.8406 13.2554 10.9359 13.4967 8.72461C13.5274 8.44994 13.3287 8.20326 13.0541 8.17326C12.7787 8.14526 12.5334 8.34122 12.5034 8.61589C12.3294 10.2046 11.4894 11.6052 10.2067 12.4979V11.3372C10.2067 11.0612 9.98274 10.8372 9.70674 10.8372C9.43074 10.8372 9.20674 11.0612 9.20674 11.3372V13.3706C9.20674 13.5433 9.29599 13.7039 9.44266 13.7952C9.52332 13.8452 9.6154 13.8706 9.70674 13.8706C9.78207 13.8706 9.85671 13.8533 9.92671 13.8193ZM9.3367 4.16659C8.41737 4.16659 7.67003 3.41859 7.67003 2.49992C7.67003 1.58125 8.41737 0.833252 9.3367 0.833252C10.256 0.833252 11.0034 1.58125 11.0034 2.49992C11.0034 3.41859 10.256 4.16659 9.3367 4.16659ZM9.3367 1.83325C8.9687 1.83325 8.67003 2.13259 8.67003 2.49992C8.67003 2.86725 8.9687 3.16659 9.3367 3.16659C9.7047 3.16659 10.0034 2.86725 10.0034 2.49992C10.0034 2.13259 9.7047 1.83325 9.3367 1.83325ZM10.666 8.49992H8.00068C7.06135 8.49992 6.50003 7.94127 6.50003 7.00594C6.50003 5.92394 7.17003 4.83325 8.6667 4.83325H10C11.4967 4.83325 12.1667 5.92461 12.1667 7.00594C12.1667 7.94127 11.6054 8.49992 10.666 8.49992ZM8.6667 5.83325C7.65203 5.83325 7.50003 6.56794 7.50003 7.00594C7.50003 7.38927 7.61202 7.49992 8.00068 7.49992H10.666C11.0547 7.49992 11.1667 7.38927 11.1667 7.00594C11.1667 6.56794 11.0147 5.83325 10 5.83325H8.6667ZM4.00337 10.8333C3.08403 10.8333 2.3367 10.0853 2.3367 9.16659C2.3367 8.24792 3.08403 7.49992 4.00337 7.49992C4.9227 7.49992 5.67003 8.24792 5.67003 9.16659C5.67003 10.0853 4.9227 10.8333 4.00337 10.8333ZM4.00337 8.49992C3.63537 8.49992 3.3367 8.79925 3.3367 9.16659C3.3367 9.53392 3.63537 9.83325 4.00337 9.83325C4.37137 9.83325 4.67003 9.53392 4.67003 9.16659C4.67003 8.79925 4.37137 8.49992 4.00337 8.49992ZM5.33271 15.1666H2.66735C1.72802 15.1666 1.1667 14.6079 1.1667 13.6726C1.1667 12.5906 1.8367 11.4999 3.33336 11.4999H4.6667C6.16336 11.4999 6.83336 12.5913 6.83336 13.6726C6.83336 14.6079 6.27205 15.1666 5.33271 15.1666ZM3.33336 12.4999C2.3187 12.4999 2.1667 13.2346 2.1667 13.6726C2.1667 14.0559 2.27868 14.1666 2.66735 14.1666H5.33271C5.72138 14.1666 5.83336 14.0559 5.83336 13.6726C5.83336 13.2346 5.68136 12.4999 4.6667 12.4999H3.33336Z" fill="#1F1F1F"/>
</svg>
