<svg width="15" height="15" viewBox="0 0 15 15" fill="none" xmlns="http://www.w3.org/2000/svg">
<path d="M5.67269 6.16667C7.23536 6.16667 8.50602 4.89533 8.50602 3.33333C8.50602 1.77133 7.23536 0.5 5.67269 0.5C4.11002 0.5 2.83936 1.77133 2.83936 3.33333C2.83936 4.89533 4.11002 6.16667 5.67269 6.16667ZM5.67269 1.5C6.68402 1.5 7.50602 2.322 7.50602 3.33333C7.50602 4.34467 6.68402 5.16667 5.67269 5.16667C4.66136 5.16667 3.83936 4.34467 3.83936 3.33333C3.83936 2.322 4.66136 1.5 5.67269 1.5ZM7.58732 8.20671C7.41932 8.17937 7.22733 8.16667 7 8.16667H4.33333C1.70467 8.16667 1.5 10.346 1.5 11.0133C1.5 12.0553 1.94867 12.5 3 12.5H6.33333C6.60933 12.5 6.83333 12.724 6.83333 13C6.83333 13.276 6.60933 13.5 6.33333 13.5H3C1.388 13.5 0.5 12.6167 0.5 11.0133C0.5 9.23868 1.504 7.16667 4.33333 7.16667H7C7.28067 7.16667 7.52468 7.18397 7.74601 7.21997C8.01868 7.2633 8.20466 7.51998 8.15999 7.79264C8.11666 8.06531 7.85199 8.25004 7.58732 8.20671ZM13.822 10.6654L13.9106 10.616C14.0286 10.55 14.1147 10.4393 14.1493 10.3093C14.1847 10.1787 14.1647 10.04 14.096 9.92399L13.4854 8.89868C13.3467 8.66602 13.05 8.58602 12.8114 8.71802L12.7227 8.76733C12.5913 8.84133 12.4266 8.842 12.2933 8.76733C12.1686 8.69733 12.0913 8.56933 12.0913 8.434C12.0913 8.10333 11.8214 7.83464 11.4887 7.83464H10.4727C10.14 7.83464 9.87004 8.10333 9.87004 8.434C9.87004 8.57 9.79264 8.69733 9.66797 8.76733C9.5353 8.842 9.37069 8.842 9.23869 8.76733C8.95469 8.60933 8.59203 8.70598 8.42603 8.98332L7.91732 9.83732C7.83532 9.97399 7.81132 10.1413 7.85132 10.2953C7.89199 10.45 7.99534 10.5846 8.13534 10.664C8.14 10.666 8.14402 10.6686 8.14868 10.6713C8.26802 10.7426 8.34131 10.8673 8.34131 11C8.34198 11.1367 8.26465 11.2653 8.13599 11.3373C7.99665 11.4167 7.8933 11.5507 7.85197 11.7047C7.81064 11.86 7.83335 12.0227 7.91602 12.1627L8.42668 13.018C8.59468 13.2993 8.95067 13.3947 9.23934 13.2333C9.37067 13.1593 9.53464 13.1593 9.66797 13.234C9.79264 13.304 9.8693 13.4313 9.8693 13.5673C9.8693 13.898 10.1394 14.1667 10.4714 14.1667H11.4893C11.8213 14.1667 12.0913 13.898 12.0913 13.5673C12.0913 13.4313 12.1686 13.304 12.2933 13.234C12.426 13.1593 12.5907 13.1593 12.7227 13.234C13.0073 13.392 13.3687 13.2953 13.5353 13.018L14.0474 12.1593C14.1287 12.0207 14.1506 11.8587 14.1093 11.7034C14.068 11.5474 13.9667 11.4173 13.826 11.3373C13.822 11.3353 13.8173 11.3326 13.8133 11.3306C13.694 11.2593 13.6207 11.134 13.6207 11.0013C13.6214 10.864 13.6987 10.7354 13.822 10.6654ZM13.006 11.9526L12.848 12.218C12.498 12.1347 12.1227 12.1826 11.804 12.362C11.4867 12.5406 11.2567 12.8313 11.1533 13.1667H10.81C10.7073 12.832 10.4773 12.5413 10.1593 12.362C9.84134 12.1826 9.46465 12.1334 9.11532 12.218L8.95736 11.9534C9.20269 11.6974 9.34403 11.356 9.34269 10.9967C9.34203 10.64 9.20002 10.3014 8.95736 10.0474L9.11532 9.78198C9.46465 9.86532 9.84068 9.81802 10.1593 9.63802C10.4767 9.45935 10.7066 9.16867 10.81 8.83333H11.1533C11.256 9.168 11.4867 9.45869 11.804 9.63802C12.1234 9.81802 12.5 9.86598 12.848 9.78198L13.006 10.0474C12.762 10.3027 12.6207 10.6433 12.6213 11.0013C12.6213 11.3586 12.7627 11.698 13.006 11.9526ZM11.68 11C11.68 11.368 11.382 11.6667 11.0133 11.6667C10.6453 11.6667 10.3433 11.368 10.3433 11C10.3433 10.632 10.6387 10.3333 11.0067 10.3333H11.0133C11.3813 10.3333 11.68 10.632 11.68 11Z" fill="#1F1F1F"/>
</svg>
